<?xml version="1.0" encoding="UTF-8" standalone="no"?>
<svg
   xmlns:dc="http://purl.org/dc/elements/1.1/"
   xmlns:cc="http://creativecommons.org/ns#"
   xmlns:rdf="http://www.w3.org/1999/02/22-rdf-syntax-ns#"
   xmlns:svg="http://www.w3.org/2000/svg"
   xmlns="http://www.w3.org/2000/svg"
   xmlns:sodipodi="http://sodipodi.sourceforge.net/DTD/sodipodi-0.dtd"
   viewBox="0 0 875 875"
   height="875"
   width="875"
   xml:space="preserve"
   version="1.1"
   id="svg3336"
   sodipodi:docname="safari-pinned-tab.svg"><sodipodi:namedview
     pagecolor="#ffffff"
     bordercolor="#666666"
     borderopacity="1"
     objecttolerance="10"
     gridtolerance="10"
     guidetolerance="10"
     id="namedview12"
     showgrid="false" /><metadata
     id="metadata3342"><rdf:RDF><cc:Work
         rdf:about=""><dc:format>image/svg+xml</dc:format><dc:type
           rdf:resource="http://purl.org/dc/dcmitype/StillImage" /><dc:title></dc:title></cc:Work></rdf:RDF></metadata><defs
     id="defs3340"><clipPath
       id="clipPath3350"
       clipPathUnits="userSpaceOnUse"><path
         id="path3352"
         d="M 0,700 700,700 700,0 0,0 0,700 Z" /></clipPath></defs><g
     transform="matrix(8.3644621,0,0,-8.3644617,-2482.239,3494.6517)"
     id="g3344"><g
       transform="translate(251.70213,6.7021277)"
       id="g3346"><g
         clip-path="url(#clipPath3350)"
         id="g3348"><g
           transform="translate(83.7754,356.6362)"
           id="g3354"><path
             id="path3356"
             style="fill:#494a8c;fill-opacity:1;fill-rule:nonzero;stroke:none"
             d="m 0,0 c -0.282,-0.032 -1.985,-0.194 -2.549,-0.227 -0.271,-0.017 -2.255,-0.086 -2.963,-0.081 -0.708,0.002 -1.403,0.02 -2.087,0.053 -0.051,0.004 -0.911,0.085 -0.911,0.085 -2.529,0.216 -4.879,0.663 -6.936,1.376 -5.963,2.044 -9.585,6.115 -10.985,11.341 -1.401,5.228 -0.323,10.651 3.819,15.402 4.23,4.775 11.597,8.989 20.395,11.347 8.885,2.381 17.373,2.414 23.422,0.394 5.217,-1.788 8.928,-5.124 10.427,-9.508 0.214,-0.626 0.406,-1.268 0.581,-1.921 C 33.614,23.035 32.512,17.698 28.37,12.947 26.952,11.308 25.161,9.71 23.09,8.265 22.878,8.121 22.652,7.984 22.435,7.842 22.393,7.814 22.348,7.787 22.305,7.758 21.73,7.387 21.136,7.024 20.524,6.668 19.914,6.31 19.28,5.966 18.632,5.628 18.394,5.504 18.161,5.378 17.918,5.257 17.413,5.004 16.899,4.76 16.375,4.521 16.12,4.404 15.857,4.293 15.597,4.179 14.846,3.852 14.081,3.538 13.294,3.24 12.799,3.051 12.3,2.865 11.79,2.688 11.423,2.561 11.055,2.438 10.683,2.318 9.864,2.052 9.032,1.8 8.179,1.567 8.118,1.55 7.791,1.463 7.73,1.446 6.875,1.222 6.028,1.025 5.187,0.845 4.804,0.763 4.423,0.686 4.043,0.612 3.513,0.511 2.987,0.422 2.464,0.338 1.634,0.203 0.814,0.092 0,0 m 12.339,-2.054 1.008,0.432 c 13.755,-15.816 31.606,-27.957 52.992,-36.145 l 0,93.097 -105.48,0 0,-105.48 17.776,0 c 20.738,-0.011 39.488,18.611 33.704,48.096"/></g></g></g></g></svg>